# Blender v2.83.1 OBJ File: ''
# www.blender.org
mtllib M_Hex.mtl
o Cylinder
v -0.485247 0.000000 -0.297173
v -0.485247 0.482985 -0.297173
v -0.014736 0.482985 -0.568822
v -0.014736 0.000000 -0.568823
v 0.485247 -0.000000 0.297173
v 0.485247 0.482984 0.297173
v 0.014736 0.482984 0.568823
v 0.014736 -0.000000 0.568823
v -0.014736 -0.000000 0.568823
v -0.014736 0.482984 0.568823
v -0.485247 0.482984 0.297173
v -0.485247 -0.000000 0.297173
v -0.499983 -0.000000 0.271650
v -0.499983 0.482984 0.271650
v -0.499983 0.482985 -0.271649
v -0.499983 0.000000 -0.271650
v 0.499983 0.000000 -0.271650
v 0.499983 0.482985 -0.271649
v 0.499983 0.482984 0.271650
v 0.499983 -0.000000 0.271650
v 0.482967 0.500000 -0.278841
v 0.000000 0.500000 -0.557682
v -0.482967 0.500000 -0.278841
v -0.482967 0.500000 0.278841
v 0.000000 0.500000 0.557683
v 0.482967 0.500000 0.278842
v 0.014736 0.482985 -0.568822
v 0.485247 0.482985 -0.297173
v 0.014736 0.000000 -0.568823
v 0.485247 0.000000 -0.297173
vt 0.161754 0.500000
vt 0.161754 0.982984
vt 0.004912 0.982984
vt 0.004912 0.500000
vt 0.661754 0.500000
vt 0.661754 0.982984
vt 0.504912 0.982984
vt 0.504912 0.500000
vt 0.495088 0.500000
vt 0.495088 0.982984
vt 0.338245 0.982984
vt 0.338245 0.500000
vt 0.328421 0.500000
vt 0.328421 0.982984
vt 0.171579 0.982984
vt 0.171579 0.500000
vt 0.828421 0.500000
vt 0.828421 0.982984
vt 0.671579 0.982984
vt 0.671579 0.500000
vt 0.450773 0.365916
vt 0.250000 0.481832
vt 0.049227 0.365916
vt 0.049227 0.134084
vt 0.250000 0.018168
vt 0.450773 0.134084
vt 0.256126 0.486463
vt 0.243874 0.486463
vt 0.457846 0.362926
vt 0.451720 0.373537
vt 0.451720 0.126463
vt 0.457846 0.137074
vt 0.243874 0.013537
vt 0.256126 0.013537
vt 0.042154 0.137074
vt 0.048280 0.126463
vt 0.048280 0.373537
vt 0.042154 0.362926
vt 0.838246 0.982984
vt 0.995088 0.982984
vt 0.997164 1.000000
vt 0.836169 1.000000
vt -0.000000 0.982984
vt -0.000000 0.500000
vt 0.838246 0.500000
vt 0.830497 1.000000
vt 0.669503 1.000000
vt 0.663831 1.000000
vt 0.502836 1.000000
vt 0.497164 1.000000
vt 0.336169 1.000000
vt 0.330497 1.000000
vt 0.169503 1.000000
vt 0.163831 1.000000
vt 0.002836 1.000000
vt 0.995088 0.500000
vn -0.5000 0.0000 -0.8660
vn 0.5000 -0.0000 0.8660
vn -0.5000 -0.0000 0.8660
vn -1.0000 -0.0000 0.0000
vn 1.0000 0.0000 0.0000
vn 0.0000 1.0000 0.0000
vn 0.0000 0.5477 -0.8366
vn 0.7246 0.5477 -0.4183
vn 0.7245 0.5478 0.4183
vn 0.0000 0.5477 0.8366
vn -0.7246 0.5478 0.4183
vn -0.7246 0.5477 -0.4183
vn 0.3536 0.7071 -0.6124
vn 0.0000 0.0000 -1.0000
vn 0.8660 0.0000 -0.5000
vn 0.7071 0.7071 0.0000
vn 0.8660 -0.0000 0.5000
vn 0.3536 0.7071 0.6124
vn 0.0000 -0.0000 1.0000
vn -0.3536 0.7071 0.6124
vn -0.8660 -0.0000 0.5000
vn -0.7071 0.7071 0.0000
vn -0.8660 0.0000 -0.5000
vn -0.3536 0.7071 -0.6124
vn 0.5000 0.0000 -0.8660
usemtl None
s 1
f 1/1/1 2/2/1 3/3/1 4/4/1
f 5/5/2 6/6/2 7/7/2 8/8/2
f 9/9/3 10/10/3 11/11/3 12/12/3
f 13/13/4 14/14/4 15/15/4 16/16/4
f 17/17/5 18/18/5 19/19/5 20/20/5
f 21/21/6 22/22/6 23/23/6 24/24/6 25/25/6 26/26/6
f 22/22/7 27/27/7 3/28/7
f 21/21/8 18/29/8 28/30/8
f 26/26/9 6/31/9 19/32/9
f 25/25/10 10/33/10 7/34/10
f 24/24/11 14/35/11 11/36/11
f 23/23/12 2/37/12 15/38/12
f 28/39/13 27/40/13 22/41/13 21/42/13
f 4/4/14 3/3/14 27/43/14 29/44/14
f 18/18/15 17/17/15 30/45/15 28/39/15
f 19/19/16 18/18/16 21/46/16 26/47/16
f 6/6/17 5/5/17 20/20/17 19/19/17
f 7/7/18 6/6/18 26/48/18 25/49/18
f 10/10/19 9/9/19 8/8/19 7/7/19
f 11/11/20 10/10/20 25/50/20 24/51/20
f 14/14/21 13/13/21 12/12/21 11/11/21
f 15/15/22 14/14/22 24/52/22 23/53/22
f 2/2/23 1/1/23 16/16/23 15/15/23
f 3/3/24 2/2/24 23/54/24 22/55/24
f 29/56/25 27/40/25 28/39/25 30/45/25
